<svg id="Layer_1" data-name="Layer 1" xmlns="http://www.w3.org/2000/svg" viewBox="0 0 128 128"><defs><style>.cls-1{fill:#1e2257;}</style></defs><path class="cls-1" d="M18.19,93.46c0,7.3,1.73,12.5,5.27,15.92,4.58,4.42,11.7,5.35,20.17,5.35,2.93,0,6-.11,9.24-.23,3.58-.13,7.29-.26,11.13-.26,3,0,5.9.06,8.72.11,13.43.27,25,.5,31.61-5.95,3.69-3.61,5.48-9,5.48-16.44,0-17.8-11.06-41.39-28.92-48.48a1.64,1.64,0,0,0-.65-.13H47.76a1.64,1.64,0,0,0-.65.13C29.81,50.35,18.19,74.87,18.19,93.46ZM48.11,46.9H79.89C94.46,52.9,106.26,73,106.26,92c0,6.45-1.45,11-4.41,13.91-5.51,5.4-16.43,5.19-29.06,4.94-2.84-.06-5.77-.12-8.79-.12-3.9,0-7.64.14-11.26.27-11.66.41-21.73.77-26.81-4.13-2.82-2.72-4.19-7.09-4.19-13.37C21.74,72,35.32,52.21,48.11,46.9Z"/><path class="cls-1" d="M49.91,40.13H77.72a1.77,1.77,0,0,0,1.3-.56c5.17-5.53,8.27-16.81,8.27-24.52a1.78,1.78,0,0,0-1.78-1.78H42.12a1.78,1.78,0,0,0-1.78,1.78c0,7.71,3.1,19,8.27,24.52A1.79,1.79,0,0,0,49.91,40.13ZM83.68,16.82c-.4,6.51-2.9,15.16-6.75,19.76H50.7C46.85,32,44.35,23.33,44,16.82Z"/><path class="cls-1" d="M51,93.41c2.69,1.67,6.63,2.35,8.85,2.61v3.57a1.77,1.77,0,0,0,1.77,1.77H67a1.81,1.81,0,0,0,1.26-.52,1.76,1.76,0,0,0,.51-1.26l0-4.12a11.8,11.8,0,0,0,9-10.26h0c.65-7-4-9.85-4.95-10.35-.56-.29-1.41-.63-2.47-1a39.77,39.77,0,0,1-6.3-3,1.59,1.59,0,0,1-.86-1.56c.14-.54.88-.68,1.31-.71,3.19-.22,8.13,1.41,8.18,1.42A1.78,1.78,0,0,0,75,68.7l1.31-5.84A1.77,1.77,0,0,0,75.56,61c-1.7-1.08-4.85-1.62-6.85-1.87V55.93a1.77,1.77,0,0,0-1.78-1.77H61.5a1.78,1.78,0,0,0-1.78,1.77v4c-6.33,1.8-9.4,6.09-8.68,12.22.79,6.73,9.7,9.6,11.48,10.11,3.7,1.06,3.56,1.67,3.37,2.52s-3.3,1.51-6.29.89A20.19,20.19,0,0,1,54.79,84a1.81,1.81,0,0,0-1.51-.09,1.76,1.76,0,0,0-1,1.11l-2,6.35A1.77,1.77,0,0,0,51,93.41ZM55,88a22.42,22.42,0,0,0,3.86,1.2c3.71.76,9.56.44,10.47-3.59,1.07-4.73-3.44-6-5.86-6.71-2.89-.83-8.49-3.38-8.93-7.12C54,67,56.33,64.28,61.87,63.1a1.76,1.76,0,0,0,1.4-1.73V57.71h1.89v3a1.78,1.78,0,0,0,1.64,1.77,28.64,28.64,0,0,1,5.75,1L72,66.07a26.4,26.4,0,0,0-7.67-1,4.7,4.7,0,0,0-4.5,3.37,5.06,5.06,0,0,0,2.39,5.43,42.56,42.56,0,0,0,6.89,3.26c.89.36,1.73.69,2.13.9.59.31,3.52,2.12,3.08,6.88a8.25,8.25,0,0,1-7.45,7.32A1.76,1.76,0,0,0,65.22,94l0,3.85H63.36V94.4a1.78,1.78,0,0,0-1.68-1.77A26,26,0,0,1,54.05,91Z"/></svg>