<svg id="Layer_1" data-name="Layer 1" xmlns="http://www.w3.org/2000/svg" viewBox="0 0 128 128"><defs><style>.cls-1{fill:none;stroke:#212456;stroke-linecap:round;stroke-linejoin:round;stroke-width:4px;}</style></defs><path class="cls-1" d="M30.27,15.87H98.1S92.45,101,64.19,101C50.39,101,42,80.65,37,59.88A300.6,300.6,0,0,1,30.27,15.87Z"/><path class="cls-1" d="M98.1,15.87S104,9.56,108.93,9.45c9.63-.22,11.4,6.42,11.4,6.42,1.89,3.91,3.4,14.08-5.64,23.47a196.55,196.55,0,0,1-23.3,20.54m-61.12-44s-6.16-6.38-11.2-6.42c-9.63-.08-11.4,6.42-11.4,6.42C5.78,19.78,4.27,30,13.31,39.34A192,192,0,0,0,37,59.88m4.6,58.68c0-11.74,22.61-17.61,22.61-17.61s22.61,5.87,22.61,17.61Z"/></svg>