<svg id="Layer_1" data-name="Layer 1" xmlns="http://www.w3.org/2000/svg" viewBox="0 0 128 128"><defs><style>.cls-1{fill:#1e2257;}</style></defs><path class="cls-1" d="M26.6,61.37A1.84,1.84,0,0,0,26.07,65a87.16,87.16,0,0,0,18.59,2.16c26.53,0,40.27-15.18,50-31.3l5.9,3.54a1.84,1.84,0,0,0,2.76-1.88L99.56,15.07a1.86,1.86,0,0,0-.93-1.3,1.84,1.84,0,0,0-1.6-.08l-20.1,8.52a1.84,1.84,0,0,0-.09,3.34l6.06,3C66.75,64.09,28.26,61.5,26.6,61.37ZM87,28.35A1.84,1.84,0,0,0,86.1,26l-4-2,14.23-6,2.74,16.21L95,31.76a1.81,1.81,0,0,0-1.4-.21,1.83,1.83,0,0,0-1.13.85C82.62,49.14,69.73,64,43.44,63.49,57.64,60.47,77,52,87,28.35Z"/><path class="cls-1" d="M32.51,84.84c-3.55,0-6.33,3.47-6.33,7.89v13.84c0,4.42,2.78,7.89,6.33,7.89h8.66c3.55,0,6.33-3.47,6.33-7.89V92.73c0-4.42-2.78-7.89-6.33-7.89Zm11.31,7.89v13.84c0,2.24-1.24,4.21-2.65,4.21H32.51c-1.42,0-2.66-2-2.66-4.21V92.73c0-2.24,1.24-4.21,2.66-4.21h8.66C42.58,88.52,43.82,90.49,43.82,92.73Z"/><path class="cls-1" d="M58.68,71.87c-3.55,0-6.33,3.47-6.33,7.89v26.81c0,4.42,2.78,7.89,6.33,7.89h8.66c3.55,0,6.33-3.47,6.33-7.89V79.76c0-4.42-2.78-7.89-6.33-7.89ZM70,79.76v26.81c0,2.24-1.24,4.21-2.65,4.21H58.68c-1.41,0-2.65-2-2.65-4.21V79.76c0-2.24,1.24-4.21,2.65-4.21h8.66C68.75,75.55,70,77.52,70,79.76Z"/><path class="cls-1" d="M96.1,56.3H87.44c-3.55,0-6.33,3.47-6.33,7.9v42.37c0,4.42,2.78,7.89,6.33,7.89H96.1c3.55,0,6.33-3.47,6.33-7.89V64.2C102.43,59.77,99.65,56.3,96.1,56.3Zm2.65,50.27c0,2.24-1.24,4.21-2.65,4.21H87.44c-1.42,0-2.66-2-2.66-4.21V64.2C84.78,62,86,60,87.44,60H96.1c1.41,0,2.65,2,2.65,4.22Z"/></svg>