<svg id="Layer_1" data-name="Layer 1" xmlns="http://www.w3.org/2000/svg" viewBox="0 0 128 128"><defs><style>.cls-1{opacity:0.89;}.cls-2{fill:none;stroke:#212456;stroke-miterlimit:10;stroke-width:3px;}</style></defs><g class="cls-1"><path class="cls-2" d="M116.6,68.62h0a4.38,4.38,0,0,1-4.08-2.79l-.33-.8a4.38,4.38,0,0,1,.9-4.87h0a4.38,4.38,0,0,0,0-6.21l-3.71-3.71a4.39,4.39,0,0,0-6.2,0h0a4.4,4.4,0,0,1-4.87.91l-.8-.33a4.38,4.38,0,0,1-2.79-4.08h0a4.39,4.39,0,0,0-4.39-4.39H85.08a4.39,4.39,0,0,0-4.39,4.39h0a4.38,4.38,0,0,1-2.79,4.08l-.8.33a4.4,4.4,0,0,1-4.87-.91h0a4.4,4.4,0,0,0-6.21,0L62.31,54a4.4,4.4,0,0,0,0,6.21h0A4.4,4.4,0,0,1,63.22,65l-.33.8a4.4,4.4,0,0,1-4.08,2.79h0A4.39,4.39,0,0,0,54.42,73v5.25a4.39,4.39,0,0,0,4.39,4.39,4.4,4.4,0,0,1,4.08,2.79l.33.8a4.4,4.4,0,0,1-.91,4.87h0a4.39,4.39,0,0,0,0,6.2L66,101a4.4,4.4,0,0,0,6.21,0h0a4.38,4.38,0,0,1,4.87-.91l.8.33a4.38,4.38,0,0,1,2.79,4.08h0a4.4,4.4,0,0,0,4.39,4.39h5.25a4.4,4.4,0,0,0,4.39-4.39h0a4.38,4.38,0,0,1,2.79-4.08l.8-.33a4.4,4.4,0,0,1,4.87.9h0a4.39,4.39,0,0,0,6.2,0l3.71-3.71a4.38,4.38,0,0,0,0-6.21h0a4.38,4.38,0,0,1-.9-4.87l.33-.8a4.38,4.38,0,0,1,4.08-2.79h0A4.4,4.4,0,0,0,121,78.26V73A4.4,4.4,0,0,0,116.6,68.62Zm-28.9,20a13,13,0,1,1,13-13A13,13,0,0,1,87.7,88.6Z"/><path class="cls-2" d="M55.06,39.38h0a3.38,3.38,0,0,1-3.15-2.16c-.09-.2-.17-.41-.26-.61a3.4,3.4,0,0,1,.7-3.77h0a3.37,3.37,0,0,0,0-4.79l-2.86-2.87a3.4,3.4,0,0,0-4.8,0h0a3.39,3.39,0,0,1-3.76.7l-.62-.25a3.41,3.41,0,0,1-2.16-3.16h0a3.39,3.39,0,0,0-3.39-3.39h-4a3.4,3.4,0,0,0-3.4,3.39h0a3.41,3.41,0,0,1-2.15,3.16l-.62.25a3.39,3.39,0,0,1-3.76-.7h0a3.4,3.4,0,0,0-4.8,0l-2.87,2.87a3.39,3.39,0,0,0,0,4.79h0a3.4,3.4,0,0,1,.7,3.77l-.25.61a3.41,3.41,0,0,1-3.16,2.16h0A3.39,3.39,0,0,0,7,42.77v4.06a3.39,3.39,0,0,0,3.39,3.39,3.41,3.41,0,0,1,3.16,2.16c.08.21.17.41.25.61a3.4,3.4,0,0,1-.7,3.77h0a3.39,3.39,0,0,0,0,4.79L16,64.42a3.39,3.39,0,0,0,4.8,0h0a3.39,3.39,0,0,1,3.76-.7l.62.26a3.39,3.39,0,0,1,2.15,3.15h0a3.4,3.4,0,0,0,3.4,3.39h4a3.39,3.39,0,0,0,3.39-3.39h0A3.38,3.38,0,0,1,40.31,64l.62-.26a3.39,3.39,0,0,1,3.76.7h0a3.39,3.39,0,0,0,4.8,0l2.86-2.87a3.37,3.37,0,0,0,0-4.79h0a3.4,3.4,0,0,1-.7-3.77c.09-.2.17-.4.26-.61a3.38,3.38,0,0,1,3.15-2.16h0a3.39,3.39,0,0,0,3.39-3.39V42.77A3.39,3.39,0,0,0,55.06,39.38ZM32.73,54.82a10,10,0,1,1,10-10A10,10,0,0,1,32.73,54.82Z"/></g></svg>