<svg id="Layer_1" data-name="Layer 1" xmlns="http://www.w3.org/2000/svg" viewBox="0 0 128 128"><defs><style>.cls-1{opacity:0.89;}.cls-2{fill:none;stroke:#231f20;stroke-miterlimit:10;stroke-width:3.53px;}</style></defs><g class="cls-1"><path class="cls-2" d="M119.36,111.92,105.08,97.64a3.5,3.5,0,0,1-.41-4.46,53.49,53.49,0,0,0,7.42-44.08A51.74,51.74,0,0,0,76.36,12.31C39.37,1.77,5.87,30.28,7.68,66A53.16,53.16,0,0,0,95.93,103.1a3.53,3.53,0,0,1,4.82.12l13.65,13.66a3.51,3.51,0,0,0,5,0h0A3.51,3.51,0,0,0,119.36,111.92ZM14.67,65.64a46.16,46.16,0,1,1,43.69,43.7A46.16,46.16,0,0,1,14.67,65.64Z"/><polyline class="cls-2" points="74.45 39.05 83.08 39.05 83.08 47.67"/><polyline class="cls-2" points="38.45 63.88 49.61 62.07 60.76 47.67 72.34 51.55 83.08 39.05"/><line class="cls-2" x1="38.45" y1="80.91" x2="38.45" y2="69.68"/><line class="cls-2" x1="49.61" y1="67.54" x2="49.61" y2="80.91"/><line class="cls-2" x1="60.76" y1="58.71" x2="60.76" y2="80.91"/><line class="cls-2" x1="71.92" y1="58.71" x2="71.92" y2="80.91"/><line class="cls-2" x1="83.08" y1="53.75" x2="83.08" y2="80.91"/></g></svg>