<svg id="Layer_1" data-name="Layer 1" xmlns="http://www.w3.org/2000/svg" viewBox="0 0 128 128"><defs><style>.cls-1{opacity:0.89;}.cls-2{fill:none;stroke:#212456;stroke-miterlimit:10;stroke-width:3px;}</style></defs><g class="cls-1"><line class="cls-2" x1="12.03" y1="87.68" x2="12.03" y2="37.71"/><rect class="cls-2" x="9.22" y="87.68" width="5.61" height="5.61"/><rect class="cls-2" x="9.22" y="32.1" width="5.61" height="5.61"/><line class="cls-2" x1="65.02" y1="91.68" x2="15.21" y2="91.68"/><line class="cls-2" x1="67.98" y1="38.91" x2="67.98" y2="88.88"/><line class="cls-2" x1="15.21" y1="36.1" x2="65.02" y2="36.1"/><rect class="cls-2" x="65.18" y="33.29" width="5.61" height="5.61"/><polyline class="cls-2" points="70.63 94.49 65.02 94.49 65.02 88.88 70.63 88.88 70.63 89.76"/><path class="cls-2" d="M76.84,64.66c-1.67,10.4-3.79,20.09-7.62,28.42L72,95.9c8.33-3.83,18-6,28.42-7.62l8.92-17.17L94,55.74Z"/><line class="cls-2" x1="89.65" y1="75.47" x2="70.63" y2="94.49"/><rect class="cls-2" x="99.74" y="47.86" width="13.3" height="21.74" transform="translate(-10.36 92.43) rotate(-45)"/></g></svg>