<svg id="Layer_1" data-name="Layer 1" xmlns="http://www.w3.org/2000/svg" viewBox="0 0 128 128"><defs><style>.cls-1{opacity:0.89;}.cls-2{fill:#1e2257;}.cls-3{fill:none;stroke:#fff;stroke-miterlimit:10;stroke-width:2.84px;}</style></defs><g class="cls-1"><path class="cls-2" d="M22.28,76a9,9,0,0,1-.15-2.9,8.6,8.6,0,0,1,17.15,1A8.36,8.36,0,0,1,39.06,76a2.39,2.39,0,0,0,2.37,2.86h8.26a2.4,2.4,0,0,1,2.4,2.4v8.27a2.38,2.38,0,0,1-2.9,2.34,9,9,0,0,0-2.9-.15,8.6,8.6,0,0,0,1,17.15,8.36,8.36,0,0,0,1.94-.22A2.39,2.39,0,0,1,52.09,111v8.26a2.4,2.4,0,0,1-2.4,2.4h-38a2.39,2.39,0,0,1-2.4-2.4v-38a2.39,2.39,0,0,1,2.4-2.4h8.27A2.38,2.38,0,0,0,22.28,76Z"/><path class="cls-3" d="M22.28,76a9,9,0,0,1-.15-2.9,8.6,8.6,0,0,1,17.15,1A8.36,8.36,0,0,1,39.06,76a2.39,2.39,0,0,0,2.37,2.86h8.26a2.4,2.4,0,0,1,2.4,2.4v8.27a2.38,2.38,0,0,1-2.9,2.34,9,9,0,0,0-2.9-.15,8.6,8.6,0,0,0,1,17.15,8.36,8.36,0,0,0,1.94-.22A2.39,2.39,0,0,1,52.09,111v8.26a2.4,2.4,0,0,1-2.4,2.4h-38a2.39,2.39,0,0,1-2.4-2.4v-38a2.39,2.39,0,0,1,2.4-2.4h8.27A2.38,2.38,0,0,0,22.28,76Z"/><path class="cls-2" d="M54.79,49.12a9,9,0,0,1,2.9-.15,8.6,8.6,0,0,1-1,17.15,8.36,8.36,0,0,1-1.94-.22,2.39,2.39,0,0,0-2.86,2.37v8.26a2.4,2.4,0,0,1-2.4,2.4H41.22A2.4,2.4,0,0,1,38.87,76a8.74,8.74,0,0,0,.16-2.9,8.61,8.61,0,0,0-17.16,1,8.94,8.94,0,0,0,.22,1.94,2.38,2.38,0,0,1-2.36,2.86H11.47a2.4,2.4,0,0,1-2.4-2.4v-38a2.39,2.39,0,0,1,2.4-2.4h38a2.39,2.39,0,0,1,2.4,2.4v8.27A2.38,2.38,0,0,0,54.79,49.12Z"/><path class="cls-3" d="M54.79,49.12a9,9,0,0,1,2.9-.15,8.6,8.6,0,0,1-1,17.15,8.36,8.36,0,0,1-1.94-.22,2.39,2.39,0,0,0-2.86,2.37v8.26a2.4,2.4,0,0,1-2.4,2.4H41.22A2.4,2.4,0,0,1,38.87,76a8.74,8.74,0,0,0,.16-2.9,8.61,8.61,0,0,0-17.16,1,8.94,8.94,0,0,0,.22,1.94,2.38,2.38,0,0,1-2.36,2.86H11.47a2.4,2.4,0,0,1-2.4-2.4v-38a2.39,2.39,0,0,1,2.4-2.4h38a2.39,2.39,0,0,1,2.4,2.4v8.27A2.38,2.38,0,0,0,54.79,49.12Z"/><path class="cls-2" d="M94.91,119.27a2.39,2.39,0,0,1-2.4,2.4h-38a2.39,2.39,0,0,1-2.4-2.4V111a2.39,2.39,0,0,0-2.86-2.37,8.36,8.36,0,0,1-1.94.22,8.6,8.6,0,0,1-1-17.15,9,9,0,0,1,2.9.15,2.38,2.38,0,0,0,2.9-2.34V81.25a2.39,2.39,0,0,1,2.4-2.4h8.27a2.4,2.4,0,0,1,2.35,2.9A8.59,8.59,0,0,0,72.52,92.2a8.62,8.62,0,0,0,9.59-8.55,8.8,8.8,0,0,0-.22-1.94,2.38,2.38,0,0,1,2.36-2.86h8.26a2.39,2.39,0,0,1,2.4,2.4Z"/><path class="cls-3" d="M94.91,119.27a2.39,2.39,0,0,1-2.4,2.4h-38a2.39,2.39,0,0,1-2.4-2.4V111a2.39,2.39,0,0,0-2.86-2.37,8.36,8.36,0,0,1-1.94.22,8.6,8.6,0,0,1-1-17.15,9,9,0,0,1,2.9.15,2.38,2.38,0,0,0,2.9-2.34V81.25a2.39,2.39,0,0,1,2.4-2.4h8.27a2.4,2.4,0,0,1,2.35,2.9A8.59,8.59,0,0,0,72.52,92.2a8.62,8.62,0,0,0,9.59-8.55,8.8,8.8,0,0,0-.22-1.94,2.38,2.38,0,0,1,2.36-2.86h8.26a2.39,2.39,0,0,1,2.4,2.4Z"/><path class="cls-2" d="M78.48,50.56A9.73,9.73,0,0,0,84.38,45a2.25,2.25,0,0,0,.2-.77c.84-8.57-7.19-12.68-13-9.35a8.62,8.62,0,0,0-1.57,1.16,2.39,2.39,0,0,1-3.66-.62L62.62,28.9a2.4,2.4,0,0,1,.88-3.28l32.86-19a2.4,2.4,0,0,1,3.28.88l19,32.86a2.4,2.4,0,0,1-.88,3.28l-7.12,4.11a2.39,2.39,0,0,0-.59,3.68,9.7,9.7,0,0,1,2.31,7.75,2.53,2.53,0,0,1-.21.76c-3.57,7.83-12.56,7.37-15.89,1.61a8.63,8.63,0,0,1-.77-1.77A2.38,2.38,0,0,0,92,58.53l-7.12,4.11a2.4,2.4,0,0,1-3.28-.88L77.14,54A2.39,2.39,0,0,1,78.48,50.56Z"/><path class="cls-3" d="M78.48,50.56A9.73,9.73,0,0,0,84.38,45a2.25,2.25,0,0,0,.2-.77c.84-8.57-7.19-12.68-13-9.35a8.62,8.62,0,0,0-1.57,1.16,2.39,2.39,0,0,1-3.66-.62L62.62,28.9a2.4,2.4,0,0,1,.88-3.28l32.86-19a2.4,2.4,0,0,1,3.28.88l19,32.86a2.4,2.4,0,0,1-.88,3.28l-7.12,4.11a2.39,2.39,0,0,0-.59,3.68,9.7,9.7,0,0,1,2.31,7.75,2.53,2.53,0,0,1-.21.76c-3.57,7.83-12.56,7.37-15.89,1.61a8.63,8.63,0,0,1-.77-1.77A2.38,2.38,0,0,0,92,58.53l-7.12,4.11a2.4,2.4,0,0,1-3.28-.88L77.14,54A2.39,2.39,0,0,1,78.48,50.56Z"/></g></svg>