<svg id="Layer_1" data-name="Layer 1" xmlns="http://www.w3.org/2000/svg" viewBox="0 0 128 128"><defs><style>.cls-1{opacity:0.89;}.cls-2{fill:none;stroke:#212456;stroke-miterlimit:10;stroke-width:4px;}</style></defs><g class="cls-1"><path class="cls-2" d="M110.51,14.92q-46.5-19.65-93,0L20.2,52a90.06,90.06,0,0,0,43.86,70.93l0,0h0a90.07,90.07,0,0,0,43.72-70.85Z"/><path class="cls-2" d="M20.77,57.53C10,51.07,3.82,45.32,5.08,42c2.4-6.4,30.72-1.72,63.26,10.45s57,27.23,54.58,33.63c-1.35,3.62-11,3.7-25,.89"/><path class="cls-2" d="M108.6,36.08c7-1,11.59-.49,12.65,1.84,2.83,6.22-20.5,22.94-52.12,37.34S9.59,96.3,6.76,90.08C5.15,86.56,12,79.66,23.89,71.73"/></g></svg>