<svg id="Layer_1" data-name="Layer 1" xmlns="http://www.w3.org/2000/svg" viewBox="0 0 128 128"><defs><style>.cls-1{fill:#1e2257;}</style></defs><g id="marketing"><g id="Group_137" data-name="Group 137"><g id="Group_136" data-name="Group 136"><path id="Path_343" data-name="Path 343" class="cls-1" d="M104.31,15.44a8.25,8.25,0,1,0,8.25,8.25,8.25,8.25,0,0,0-8.25-8.25Zm0,12.26a4,4,0,1,1,4-4,4,4,0,0,1-4,4Z"/></g></g><g id="Group_139" data-name="Group 139"><g id="Group_138" data-name="Group 138"><path id="Path_344" data-name="Path 344" class="cls-1" d="M23.69,61.79A8.26,8.26,0,1,0,31.94,70h0a8.24,8.24,0,0,0-8.23-8.25Zm0,12.26a4,4,0,1,1,4-4h0a4,4,0,0,1-4,4Z"/></g></g><g id="Group_141" data-name="Group 141"><g id="Group_140" data-name="Group 140"><path id="Path_345" data-name="Path 345" class="cls-1" d="M47.86,37.62a8.25,8.25,0,1,0,8.25,8.25h0a8.23,8.23,0,0,0-8.23-8.25Zm0,12.26a4,4,0,1,1,4-4h0a4,4,0,0,1-4,4Z"/></g></g><g id="Group_143" data-name="Group 143"><g id="Group_142" data-name="Group 142"><path id="Path_346" data-name="Path 346" class="cls-1" d="M65,54.75A8.26,8.26,0,1,0,73.25,63h0A8.24,8.24,0,0,0,65,54.75ZM65,67a4,4,0,1,1,4-4h0a4,4,0,0,1-4,4Z"/></g></g><g id="Group_145" data-name="Group 145"><g id="Group_144" data-name="Group 144"><rect id="Rectangle_182" data-name="Rectangle 182" class="cls-1" x="62.29" y="41.49" width="44.13" height="4.24" transform="translate(-6.1 72.51) rotate(-45.06)"/></g></g><g id="Group_147" data-name="Group 147"><g id="Group_146" data-name="Group 146"><rect id="Rectangle_183" data-name="Rectangle 183" class="cls-1" x="54.33" y="48.26" width="4.24" height="12.33" transform="translate(-21.95 55.96) rotate(-45.08)"/></g></g><g id="Group_149" data-name="Group 149"><g id="Group_148" data-name="Group 148"><rect id="Rectangle_184" data-name="Rectangle 184" class="cls-1" x="24.76" y="55.82" width="22.41" height="4.24" transform="translate(-30.44 42.4) rotate(-45)"/></g></g><g id="Group_151" data-name="Group 151"><g id="Group_150" data-name="Group 150"><rect id="Rectangle_185" data-name="Rectangle 185" class="cls-1" x="15.5" y="108.32" width="97" height="4.24"/></g></g><g id="Group_153" data-name="Group 153"><g id="Group_152" data-name="Group 152"><rect id="Rectangle_186" data-name="Rectangle 186" class="cls-1" x="102.19" y="49.09" width="4.24" height="61.36"/></g></g><g id="Group_155" data-name="Group 155"><g id="Group_154" data-name="Group 154"><rect id="Rectangle_187" data-name="Rectangle 187" class="cls-1" x="63.91" y="79.78" width="4.24" height="30.66"/></g></g><g id="Group_157" data-name="Group 157"><g id="Group_156" data-name="Group 156"><rect id="Rectangle_188" data-name="Rectangle 188" class="cls-1" x="21.57" y="85.91" width="4.24" height="24.53"/></g></g><g id="Group_159" data-name="Group 159"><g id="Group_158" data-name="Group 158"><rect id="Rectangle_189" data-name="Rectangle 189" class="cls-1" x="45.71" y="67.48" width="4.24" height="42.96"/></g></g></g></svg>