<svg id="Layer_1" data-name="Layer 1" xmlns="http://www.w3.org/2000/svg" viewBox="0 0 128 128"><defs><style>.cls-1{fill:#1e2257;}</style></defs><path id="_001-suitcase" data-name=" 001-suitcase" class="cls-1" d="M117.69,28.21H91.84v-8a10,10,0,0,0-9.94-9.94H46.1a10,10,0,0,0-9.94,9.94v8H10.31a6,6,0,0,0-6,6V78.44a6,6,0,0,0,4,5.61v27.68a6,6,0,0,0,6,6h99.42a6,6,0,0,0,6-6h0V84.05a6,6,0,0,0,4-5.61V34.17a6,6,0,0,0-6-6Zm-77.55-8a6,6,0,0,1,6-6H81.9a6,6,0,0,1,6,6v8h-4v-8a2,2,0,0,0-2-2H46.1a2,2,0,0,0-2,2v8h-4Zm39.77,8H48.09v-6H79.91Zm35.79,83.52a2,2,0,0,1-2,2H14.29a2,2,0,0,1-2-2h0v-27l43.75,6v5a6,6,0,0,0,6,6h4a6,6,0,0,0,6-6v-5l43.75-6ZM68,95.82a2,2,0,0,1-2,2H62a2,2,0,0,1-2-2h0V83.89a2,2,0,0,1,2-2h4a2,2,0,0,1,2,2h0Zm51.7-17.38a2,2,0,0,1-1.71,2l-.55.07L72,86.75V83.89a6,6,0,0,0-6-6H62a6,6,0,0,0-6,6v2.86L10,80.41a2,2,0,0,1-1.71-2V34.17a2,2,0,0,1,2-2H117.69a2,2,0,0,1,2,2h0Z"/></svg>