<svg id="Layer_1" data-name="Layer 1" xmlns="http://www.w3.org/2000/svg" viewBox="0 0 128 128"><defs><style>.cls-1{fill:#1e2257;}</style></defs><g id="_002-care" data-name=" 002-care"><g id="Group_163" data-name="Group 163"><g id="Group_162" data-name="Group 162"><path id="Path_347" data-name="Path 347" class="cls-1" d="M74.91,98.08H66.36a2.21,2.21,0,0,0,0,4.41h8.55a2.39,2.39,0,1,1,.17,4.78H51.91A11.59,11.59,0,0,1,43,103.09l-5.5-6.62a16,16,0,0,0-11.85-5.76v-13h8.1A15.33,15.33,0,0,1,44.41,82L56.28,93.47a2.16,2.16,0,0,1-3,3.15L44,88.08a2.21,2.21,0,1,0-3.13,3.11l.15.13,9.32,8.55a6.57,6.57,0,0,0,9-9.57L47.47,78.84A19.68,19.68,0,0,0,33.75,73.3H25.21a5.46,5.46,0,0,0-5-3.34H9.82a2.21,2.21,0,0,0-2.21,2.2h0V88.27a2.21,2.21,0,0,0,4.41,0V74.37h8.16a1.06,1.06,0,0,1,1.06,1V93.07a1.06,1.06,0,0,1-1.06,1.06H17.89a2.19,2.19,0,0,0-2.21,2.19,2.22,2.22,0,0,0,2.2,2.22h2.3a5.47,5.47,0,0,0,5.06-3.43,11.55,11.55,0,0,1,8.86,4.18l5.5,6.61a16,16,0,0,0,12.31,5.77h23a6.8,6.8,0,1,0,0-13.59Z"/></g></g><g id="Group_165" data-name="Group 165"><g id="Group_164" data-name="Group 164"><path id="Path_348" data-name="Path 348" class="cls-1" d="M118.18,36.67A2.21,2.21,0,0,0,116,38.88V53.64h-8.16a1.05,1.05,0,0,1-1-1.06h0V34.93a1,1,0,0,1,1-1h2.13a2.21,2.21,0,0,0,0-4.41h-2.13a5.46,5.46,0,0,0-5.06,3.42,11.55,11.55,0,0,1-8.86-4.18l-5.5-6.61a16,16,0,0,0-12.31-5.77h-23a6.8,6.8,0,1,0,0,13.59h9.41a2.21,2.21,0,0,0,0-4.41H53.08a2.39,2.39,0,1,1-.17-4.78H76.08A11.59,11.59,0,0,1,85,24.91l5.51,6.62a16,16,0,0,0,11.84,5.76v13H94.24A15.31,15.31,0,0,1,83.58,46L71.71,34.53a2.16,2.16,0,0,1,3-3.15L84,39.92a2.2,2.2,0,1,0,3.12-3.11L87,36.68l-9.32-8.55a6.57,6.57,0,0,0-9,9.57L80.52,49.16A19.69,19.69,0,0,0,94.25,54.7h8.53a5.47,5.47,0,0,0,5,3.34h10.36a2.21,2.21,0,0,0,2.21-2.2v-17a2.21,2.21,0,0,0-2.21-2.21Z"/></g></g><g id="Group_167" data-name="Group 167"><g id="Group_166" data-name="Group 166"><path id="Path_349" data-name="Path 349" class="cls-1" d="M78.71,91.23a2.23,2.23,0,1,0-1.15,2.94l0,0A2.21,2.21,0,0,0,78.71,91.23Z"/></g></g><g id="Group_169" data-name="Group 169"><g id="Group_168" data-name="Group 168"><path id="Path_350" data-name="Path 350" class="cls-1" d="M84.19,87.53a2.2,2.2,0,1,0-.48,3.09l0,0A2.2,2.2,0,0,0,84.19,87.53Z"/></g></g><g id="Group_171" data-name="Group 171"><g id="Group_170" data-name="Group 170"><path id="Path_351" data-name="Path 351" class="cls-1" d="M72.56,93.71a2.22,2.22,0,1,0-1.76,2.62h.07a2.2,2.2,0,0,0,1.69-2.62Z"/></g></g><g id="Group_173" data-name="Group 173"><g id="Group_172" data-name="Group 172"><path id="Path_352" data-name="Path 352" class="cls-1" d="M88.79,82.74a2.19,2.19,0,0,0-3.11.16l-.05,0A2.21,2.21,0,1,0,89,85.81a2.2,2.2,0,0,0-.21-3.07Zm-1.23,1.85-.24-.22.26.24Z"/></g></g><g id="Group_175" data-name="Group 175"><g id="Group_174" data-name="Group 174"><path id="Path_353" data-name="Path 353" class="cls-1" d="M94.4,70.8a2.21,2.21,0,1,0,1.46,2.77v0A2.21,2.21,0,0,0,94.4,70.8Z"/></g></g><g id="Group_177" data-name="Group 177"><g id="Group_176" data-name="Group 176"><path id="Path_354" data-name="Path 354" class="cls-1" d="M97.22,59.44a.28.28,0,0,0,0-.09,2.38,2.38,0,1,0,0,.09Z"/></g></g><g id="Group_179" data-name="Group 179"><g id="Group_178" data-name="Group 178"><path id="Path_355" data-name="Path 355" class="cls-1" d="M95.2,64.21a2.21,2.21,0,0,0-2.39,2v.09a2.2,2.2,0,0,0,2.07,2.32H95a2.2,2.2,0,1,0,.2-4.4h0Z"/></g></g><g id="Group_181" data-name="Group 181"><g id="Group_180" data-name="Group 180"><path id="Path_356" data-name="Path 356" class="cls-1" d="M92.24,77.07a2.2,2.2,0,0,0-3,.83l0,.06a2.2,2.2,0,0,0,3.86,2.12L91.16,79l1.91,1.08A2.2,2.2,0,0,0,92.24,77.07Z"/></g></g><g id="Group_183" data-name="Group 183"><g id="Group_182" data-name="Group 182"><path id="Path_357" data-name="Path 357" class="cls-1" d="M52.3,35.12a2.2,2.2,0,0,0-2.95-1h0a2.2,2.2,0,1,0,3,1Z"/></g></g><g id="Group_185" data-name="Group 185"><g id="Group_184" data-name="Group 184"><path id="Path_358" data-name="Path 358" class="cls-1" d="M58.67,33.29A2.2,2.2,0,0,0,56,31.67h0a2.2,2.2,0,1,0,2.71,1.61Z"/></g></g><g id="Group_187" data-name="Group 187"><g id="Group_186" data-name="Group 186"><path id="Path_359" data-name="Path 359" class="cls-1" d="M46.47,38.3A2.18,2.18,0,0,0,43.38,38l1.37,1.72L43.37,38a2.21,2.21,0,0,0,2.75,3.45l0,0A2.18,2.18,0,0,0,46.47,38.3Z"/></g></g><g id="Group_189" data-name="Group 189"><g id="Group_188" data-name="Group 188"><path id="Path_360" data-name="Path 360" class="cls-1" d="M34.73,54A2.2,2.2,0,0,0,32,55.52l0,.08A2.2,2.2,0,1,0,34.73,54Z"/></g></g><g id="Group_191" data-name="Group 191"><g id="Group_190" data-name="Group 190"><path id="Path_361" data-name="Path 361" class="cls-1" d="M33.33,60.44A2.2,2.2,0,0,0,31,62.51v.09a2.21,2.21,0,0,0,2.14,2.26h.06a2.21,2.21,0,0,0,.13-4.41h0Z"/></g></g><g id="Group_193" data-name="Group 193"><g id="Group_192" data-name="Group 192"><path id="Path_362" data-name="Path 362" class="cls-1" d="M37.5,48a2.2,2.2,0,0,0-3,.93l0,.07a2.2,2.2,0,1,0,3-1Z"/></g></g><g id="Group_195" data-name="Group 195"><g id="Group_194" data-name="Group 194"><path id="Path_363" data-name="Path 363" class="cls-1" d="M41.48,42.66a2.2,2.2,0,0,0-3.1.28l0,.06a2.2,2.2,0,1,0,3.15-.34Z"/></g></g><g id="Group_197" data-name="Group 197"><g id="Group_196" data-name="Group 196"><path id="Path_364" data-name="Path 364" class="cls-1" d="M35.82,68.85a2.21,2.21,0,0,0-4.34.78v0a2.21,2.21,0,0,0,2.16,1.8,2.6,2.6,0,0,0,.4,0,2.2,2.2,0,0,0,1.78-2.56Z"/></g></g><g id="Group_199" data-name="Group 199"><g id="Group_198" data-name="Group 198"><path id="Path_365" data-name="Path 365" class="cls-1" d="M71.56,52.13a10.23,10.23,0,0,0-7.42,3.18A10.23,10.23,0,1,0,49.28,69.38a12.06,12.06,0,0,0,.9.84l0,0,12.56,9.94a2.21,2.21,0,0,0,2.73,0L78.6,69.77l.18-.16a10.23,10.23,0,0,0-7.22-17.47ZM75.75,66.4,64.14,75.65,53,66.84a5.82,5.82,0,0,1,7.51-8.9,5.72,5.72,0,0,1,1.62,2.21,2.2,2.2,0,0,0,4.07,0,5.82,5.82,0,0,1,10.76,4.46,5.75,5.75,0,0,1-1.19,1.81Z"/></g></g><g id="Group_201" data-name="Group 201"><g id="Group_200" data-name="Group 200"><circle id="Ellipse_117" data-name="Ellipse 117" class="cls-1" cx="9.81" cy="96.33" r="2.19"/></g></g><g id="Group_203" data-name="Group 203"><g id="Group_202" data-name="Group 202"><circle id="Ellipse_118" data-name="Ellipse 118" class="cls-1" cx="118.18" cy="31.68" r="2.19"/></g></g></g></svg>