<svg id="Layer_1" data-name="Layer 1" xmlns="http://www.w3.org/2000/svg" viewBox="0 0 128 128"><defs><style>.cls-1{fill:none;stroke:#212456;stroke-linecap:round;stroke-linejoin:round;stroke-width:4px;}</style></defs><path class="cls-1" d="M52.81,47.27l.06-.06m22.32.06.06-.06M52.81,69.65l.06-.06m22.32.06.06-.06M52.81,92l.06-.06M75.19,92l.06-.06M30.43,111V28.19a3.36,3.36,0,0,1,3.36-3.36H64V17a3.36,3.36,0,0,1,3.36-3.36H94.21A3.36,3.36,0,0,1,97.57,17h0v94a3.36,3.36,0,0,1-3.36,3.36H33.79A3.36,3.36,0,0,1,30.43,111Z"/></svg>